/* XPM */
static char *XPM_icon[] = {
"16 16 17 1 8 8",
"  c None",
"s c #D4A4C6",
"S c #D4A4C6",
"r c #D4A4C6",
"R c #D4A4C6",
"g c #D4A4C6",
"G c #D4A4C6",
"y c #D4A4C6",
"Y c #D4A4C6",
"b c #D4A4C6",
"B c #D4A4C6",
"m c #D4A4C6",
"M c #D4A4C6",
"c c #D4A4C6",
"C c #D4A4C6",
"w c #D4A4C6",
"W c #D4A4C6",
"                ",
" w              ",
" w              ",
" w              ",
" w              ",
" w    gggg      ",
" w w            ",
" ww             ",
" w   gggggg     ",
"                ",
"                ",
"   yyyyyyyyyy   ",
"                ",
"                ",
" rrrrrrrrrrrrrr ",
"                ",
};
